<?xml version="1.0" encoding="UTF-8"?> <svg xmlns="http://www.w3.org/2000/svg" id="Vrstva_1" version="1.1" viewBox="0 0 120 30"><defs><style> .st0 { fill-rule: evenodd; } </style></defs><path class="st0" d="M111.9,10.1l2.3,3.7h5.8s-3.4-4.7-5.2-7.1L120,0h-5.6l-2.4,3.3L109.6,0h-5.7l5.2,6.7c-1.8,2.4-5.2,7.1-5.2,7.1h5.8l2.2-3.7ZM41.4,16c-1.3-.6-2.5-.7-4.1-.7-3.9,0-7.4,3.2-7.4,7.2s3.2,7.1,7.8,7.1,2.4-.1,3.7-.8v-4c-.8.5-1.7.9-3,.9s-3.3-1.5-3.3-3.3,1.5-3.4,3.4-3.4,2.1.4,2.9,1v-4ZM68.5,15.6h5v13.8h-4.2l-5.8-5.8v5.8h-5v-13.8h4l6,5.9v-5.9ZM120,19.3v-3.7h-13.3c-5.2,0-7.5,2.9-7.5,6.9s3.5,7.1,7.5,7.1,2.3-.2,3.5-.9v-3.7c-.8.7-1.5.9-2.6.9-1.9-.1-3.5-1.5-3.5-3.4s1-3.3,3-3.3h4.5v10.2h5v-10.1h3.4ZM74.3,15.6h11.9v3.6h-3.4v10.2h-5v-10.1h-3.5v-3.7ZM103.3,13.9h-5.4V.1h5.4v13.8ZM49.1.1h-5v13.8h5v-5h4.3v5h5V.1h-5v4.7h-4.3V.1ZM91.2.1h4.9v13.7h-4.2l-5.9-5.8v5.9h-5V.1h4l6.2,5.8V.1ZM15.2,20.6v-2.5c0-1.4,1.1-1.9,1.1-1.9,1-.7,2-2,2-3.5s-.5-2.3-1.4-3.1c-.2-.1-.4-.3-.5-.4-.5-.4-1.1-.7-1.1-1.5v-2.7c0-.8,0-1.6,1.5-1.6,4.9,0,9,4.5,9,9.1s-3.8,9.3-9,9.3-1.6-1.2-1.6-1.2ZM13.1,24.6v-6.5c0-1.3-1.1-1.9-1.1-1.9-1-.7-2-1.9-2-3.5.1-1.3.5-2.2,1.5-3.1.2-.2.5-.4.7-.5.5-.4.9-.7.9-1.4v-2.7c0-.8,0-1.6-1.5-1.6h-6.7c-.8,0-1.5.7-1.5,1.5v19.7c0,.8.8,1.5,1.6,1.5h6.6c.8,0,1.5-.7,1.5-1.5ZM14.2,14.6c-1.1,0-2-.9-2-2s.9-2,2-2,2,.9,2,2-.9,2-2,2ZM0,2.1C0,1,.9.1,2,.1h24.9c1.1,0,2,.9,2,2v25.2c0,1.1-.9,2-2,2H2c-1.1,0-2-.9-2-2V2.1ZM35.8,3.4h.8c1.1,0,1.8.6,1.8,1.6s-.7,1.6-1.8,1.6h-.8v-3.2ZM30.7.1h6.9c3.8,0,5.7,1.9,5.7,4.9s-2.9,4.9-5.7,4.9h-1.9v4h-5V.1ZM67,4.1c1.5,0,2.4,1.5,2.4,3s-.9,2.9-2.4,2.9-2.3-1.4-2.3-2.9.8-3,2.3-3ZM67,.1h12.5v3.3h-5.6v1.9h5.6v3.3h-5.6v1.9h5.6v3.4h-12.5c-2.5,0-4.1-.9-5.3-2-1-1-1.9-2.9-1.9-4.9s.5-3.8,1.9-5.1c1.4-1.3,2.8-1.8,5.3-1.8ZM90.8,23.7l1.1-3.4,1.1,3.4h-2.2ZM89.2,15.6h5.3l5.6,13.8h-5.1l-1-2.5h-4.4l-1,2.5h-5.1l5.7-13.8ZM49.8,19.5c1.5,0,2.4,1.5,2.4,3.1s-.9,3-2.4,3-2.4-1.5-2.4-3,.9-3.1,2.4-3.1ZM49.8,15.3c4.6,0,7.5,3.1,7.5,7.2s-2.9,7.1-7.5,7.1-7.4-3.1-7.4-7.1,3-7.2,7.4-7.2Z"></path></svg> 