<?xml version="1.0" encoding="UTF-8" standalone="no"?> <svg xmlns:svg="http://www.w3.org/2000/svg" xmlns="http://www.w3.org/2000/svg" xmlns:xlink="http://www.w3.org/1999/xlink" version="1.0" width="1024" height="548" viewBox="-2.41285149 -2.41285149 159.19383298 85.25408598" id="svg7792"><defs id="defs7794"><linearGradient x1="0" y1="0" x2="1" y2="0" id="linearGradient5204" gradientUnits="userSpaceOnUse" gradientTransform="matrix(68.208839,-13.076282,-13.076282,-68.208839,1872.1659,816.49835)" spreadMethod="pad"><stop id="stop5206" style="stop-color:#293d9c;stop-opacity:1" offset="0"></stop><stop id="stop5208" style="stop-color:#00adef;stop-opacity:1" offset="1"></stop></linearGradient><linearGradient x1="0" y1="0" x2="1" y2="0" id="linearGradient7424" xlink:href="#linearGradient5204" gradientUnits="userSpaceOnUse" gradientTransform="matrix(85.261049,16.345352,-16.345352,85.261049,61.040865,17.167952)" spreadMethod="pad"></linearGradient><linearGradient x1="0" y1="0" x2="1" y2="0" id="linearGradient5222" gradientUnits="userSpaceOnUse" gradientTransform="matrix(-33.112514,-31.084417,-31.084417,33.112514,1938.0577,827.69965)" spreadMethod="pad"><stop id="stop5224" style="stop-color:#293d9c;stop-opacity:1" offset="0"></stop><stop id="stop5226" style="stop-color:#1ab6f1;stop-opacity:1" offset="1"></stop></linearGradient><linearGradient x1="0" y1="0" x2="1" y2="0" id="linearGradient7427" xlink:href="#linearGradient5222" gradientUnits="userSpaceOnUse" gradientTransform="matrix(-41.390642,38.855521,-38.855521,-41.390642,143.40561,3.1663215)" spreadMethod="pad"></linearGradient><linearGradient x1="0" y1="0" x2="1" y2="0" id="linearGradient5240" gradientUnits="userSpaceOnUse" gradientTransform="matrix(68.208839,-13.076282,-13.076282,-68.208839,1872.1659,816.49835)" spreadMethod="pad"><stop id="stop5242" style="stop-color:#293d9c;stop-opacity:1" offset="0"></stop><stop id="stop5244" style="stop-color:#00adef;stop-opacity:1" offset="1"></stop></linearGradient><linearGradient x1="0" y1="0" x2="1" y2="0" id="linearGradient7430" xlink:href="#linearGradient5240" gradientUnits="userSpaceOnUse" gradientTransform="matrix(85.261049,16.345352,-16.345352,85.261049,61.040865,17.167952)" spreadMethod="pad"></linearGradient></defs><path d="M 37.687235,73.109632 L 37.687235,69.842132 C 37.687235,68.617132 35.065985,66.553382 29.855985,66.553382 C 24.499735,66.553382 21.983485,68.759632 21.983485,69.842132 L 21.983485,73.109632 C 21.983485,74.720882 24.955985,76.578382 29.855985,76.578382 C 34.759735,76.578382 37.687235,74.929632 37.687235,73.109632 z M 33.340985,73.109632 C 33.340985,73.827132 31.915985,74.934632 29.784735,74.934632 C 27.657235,74.934632 26.308485,73.967132 26.308485,73.109632 L 26.308485,69.842132 C 26.308485,69.332132 27.657235,68.305882 29.784735,68.305882 C 31.915985,68.305882 33.340985,69.392132 33.340985,69.842132 L 33.340985,73.109632" id="path5180" style="fill:#293d9b;fill-opacity:1;fill-rule:nonzero;stroke:none"></path><path d="M 60.792235,76.377132 L 58.292235,76.377132 C 57.650985,76.377132 57.298485,76.214632 57.298485,75.927132 L 57.298485,70.373382 C 57.298485,69.412132 56.159735,68.413382 54.032235,68.413382 C 51.899735,68.413382 50.557235,69.412132 50.557235,70.495882 L 50.535985,75.927132 C 50.535985,76.214632 50.184735,76.377132 49.544735,76.377132 L 47.112235,76.377132 C 46.470985,76.377132 46.118485,76.214632 46.118485,75.927132 L 46.118485,67.372132 C 46.118485,67.083382 46.470985,66.922132 47.112235,66.922132 L 49.067235,66.922132 C 49.438485,66.922132 49.605985,67.023382 49.729735,67.228382 C 49.853485,67.414632 50.017235,67.494632 50.140985,67.494632 C 50.305985,67.494632 52.663485,66.552132 54.919735,66.552132 C 58.764735,66.552132 61.715985,68.002132 61.715985,70.125882 L 61.715985,75.927132 C 61.715985,76.214632 61.429735,76.377132 60.792235,76.377132" id="path5182" style="fill:#293d9b;fill-opacity:1;fill-rule:nonzero;stroke:none"></path><path d="M 85.567235,71.787132 L 85.567235,70.195882 C 85.567235,68.379632 83.202235,66.510882 77.900985,66.510882 C 72.998485,66.510882 69.840985,68.522132 69.840985,70.195882 L 69.840985,73.359632 C 69.840985,75.012132 73.040985,76.689632 78.313485,76.689632 C 82.344735,76.689632 84.370985,75.682132 84.987235,75.337132 C 85.378485,75.108382 85.630985,74.845882 85.215985,74.682132 L 83.810985,74.127132 C 83.394735,73.965882 83.067235,74.029632 82.754735,74.173382 C 82.179735,74.414632 80.299735,74.900882 78.313485,74.900882 C 76.388485,74.900882 74.254735,74.173382 74.254735,73.462132 L 74.254735,72.988382 C 74.254735,72.749632 74.337235,72.663382 74.564735,72.663382 L 83.582235,72.663382 C 84.842235,72.663382 85.567235,72.358382 85.567235,71.787132 z M 81.173485,70.610882 C 81.173485,70.753382 80.988485,70.838382 80.679735,70.838382 L 74.753485,70.838382 C 74.439735,70.838382 74.254735,70.753382 74.254735,70.610882 L 74.254735,70.018382 C 74.254735,68.879632 75.493485,68.237132 77.917235,68.237132 C 80.382235,68.237132 81.173485,69.147132 81.173485,70.018382 L 81.173485,70.610882" id="path5184" style="fill:#293d9b;fill-opacity:1;fill-rule:nonzero;stroke:none"></path><path d="M 109.56848,73.184632 L 109.56848,70.082132 C 109.56848,68.098382 106.80723,66.593382 101.90348,66.593382 C 96.817235,66.593382 93.860985,68.342132 93.860985,70.082132 L 93.860985,79.980882 C 93.860985,80.268382 94.145985,80.428382 94.787235,80.428382 L 97.409735,80.428382 C 98.049735,80.428382 98.403485,80.268382 98.403485,79.980882 L 98.403485,76.468382 C 98.403485,75.960882 98.549735,76.038382 99.085985,76.182132 C 99.830985,76.385882 100.72848,76.594632 101.90348,76.594632 C 106.80723,76.594632 109.56848,74.998382 109.56848,73.184632 z M 105.28473,73.122132 C 105.28473,73.837132 103.97223,74.824632 101.84473,74.824632 C 99.714735,74.824632 98.184735,73.837132 98.184735,73.122132 L 98.184735,70.017132 C 98.184735,69.055882 99.794735,68.272132 101.92348,68.272132 C 104.05723,68.272132 105.28473,69.055882 105.28473,70.017132 L 105.28473,73.122132" id="path5186" style="fill:#293d9b;fill-opacity:1;fill-rule:nonzero;stroke:none"></path><path d="M 132.89973,75.970882 L 132.89973,70.125882 C 132.89973,68.065882 130.14973,66.559632 125.55973,66.559632 C 124.60598,66.559632 123.72098,66.668382 122.62223,66.852132 C 121.58848,66.993382 120.31973,67.273382 119.86348,67.435882 C 119.39598,67.597132 119.01598,67.699632 119.36848,67.965882 L 120.63223,68.893382 C 121.00223,69.102132 121.29348,68.920882 121.78973,68.800882 C 123.19598,68.473382 124.15473,68.373382 125.62348,68.373382 C 127.89848,68.373382 128.65848,69.392132 128.80098,69.863382 C 128.84223,70.028382 128.75723,70.208382 128.57098,70.168382 C 128.34723,70.105882 126.48848,69.919632 125.49848,69.919632 C 121.58848,69.919632 117.25098,71.024632 117.25098,72.862132 L 117.25098,73.508382 C 117.25098,75.345882 121.31973,76.625882 125.45723,76.625882 C 127.43973,76.625882 128.86098,75.970882 129.04973,75.970882 C 129.20848,75.970882 129.34973,76.109632 129.49973,76.209632 C 129.59223,76.275882 129.93473,76.345882 129.97098,76.384632 L 131.90223,76.384632 C 132.54848,76.384632 132.89973,76.254632 132.89973,75.970882 z M 128.74348,73.590882 C 128.74348,74.468382 127.16848,74.974632 125.26598,74.974632 C 123.30098,74.974632 121.56473,74.445882 121.56473,73.609632 L 121.56473,72.882132 C 121.56473,72.129632 123.38598,71.399632 125.28473,71.399632 C 127.41598,71.399632 128.74348,72.067132 128.74348,72.844632 L 128.74348,73.590882" id="path5188" style="fill:#293d9b;fill-opacity:1;fill-rule:nonzero;stroke:none"></path><path d="M 153.23598,68.342132 C 152.79723,68.689632 152.54973,68.622132 152.15598,68.560882 C 151.59973,68.475882 151.39973,68.353382 149.98348,68.353382 C 147.73348,68.353382 146.49098,69.412132 146.49098,70.125882 L 146.49098,75.907132 C 146.49098,76.192132 146.13473,76.352132 145.49473,76.352132 L 143.06848,76.352132 C 142.42973,76.352132 142.07973,76.192132 142.07973,75.907132 L 142.07973,70.125882 C 142.07973,68.393382 144.93598,66.592132 149.84098,66.592132 C 152.32098,66.592132 153.58348,67.108382 154.03973,67.269632 C 154.47473,67.434632 154.45223,67.494632 154.12098,67.759632 L 153.23598,68.342132" id="path5190" style="fill:#293d9b;fill-opacity:1;fill-rule:nonzero;stroke:none"></path><path d="M 7.6209845,76.600882 C 5.3172345,76.600882 2.2234845,76.159632 0.24348451,74.782132 C -0.21776549,74.455882 0.064734506,74.300882 0.36473451,74.215882 C 0.69223451,74.115882 1.9009845,73.753382 2.3297345,73.753382 C 2.7084845,73.753382 4.6109845,74.909632 7.4972345,74.909632 C 8.1259845,74.909632 10.495985,74.562132 10.495985,73.589632 C 10.495985,72.802132 8.7109845,72.785882 8.7109845,72.785882 L 4.8922345,72.582132 C 3.1947345,72.483382 0.44848451,71.995882 0.44848451,69.994632 C 0.44848451,67.249632 5.3359845,66.600882 7.6784845,66.600882 C 10.709735,66.600882 13.115985,67.490882 13.577235,67.735882 C 13.963485,67.954632 13.577235,68.155882 13.374735,68.279632 C 13.215985,68.377132 12.247235,69.007132 11.862235,69.007132 C 11.317235,69.007132 10.164735,68.209632 7.9247345,68.209632 C 6.8122345,68.209632 4.8034845,68.659632 4.8034845,69.592132 C 4.8034845,70.239632 6.1247345,70.337132 6.1247345,70.337132 L 9.9822345,70.458382 C 12.307235,70.537132 14.872235,71.370882 14.872235,73.288382 C 14.872235,75.977132 10.063485,76.600882 7.6209845,76.600882" id="path5192" style="fill:#293d9b;fill-opacity:1;fill-rule:nonzero;stroke:none"></path><path d="M 103.17223,38.820882 C 86.777235,35.408382 74.353485,26.677132 75.424735,19.314632 C 76.504735,11.952132 90.659735,8.7571315 107.05973,12.170882 C 123.45223,15.587132 138.10973,24.705882 137.04223,32.060882 C 135.97223,39.424632 119.57098,42.237132 103.17223,38.820882 z M 106.67223,9.3483815 C 83.348485,4.9696315 63.287235,8.6158815 61.850985,17.492132 C 60.422235,26.362132 78.158485,37.113382 101.47473,41.487132 C 124.80223,45.868382 144.86098,42.227132 146.29598,33.348382 C 147.72848,24.477132 129.98598,13.729632 106.67223,9.3483815" id="path5210" style="fill:url(#linearGradient7424);stroke:none"></path><path d="M 127.29973,33.954632 C 117.52598,43.629632 105.29723,48.805882 101.21098,43.894632 C 97.124735,38.973382 102.73473,25.855882 112.50473,16.169632 C 122.27723,6.4883815 133.51473,2.6233815 137.59848,7.5321315 C 141.68848,12.445882 137.07223,24.272132 127.29973,33.954632 z M 108.96848,15.414632 C 95.722235,28.420882 89.668485,43.565882 95.427235,49.252132 C 101.19473,54.940882 116.59473,48.997132 129.82973,35.992132 C 143.06973,22.989632 149.12473,7.8433815 143.35973,2.1571315 C 137.59848,-3.5278685 122.19598,2.4121315 108.96848,15.414632" id="path5228" style="fill:url(#linearGradient7427);stroke:none"></path><path d="M 110.91723,39.983382 C 108.37723,39.748382 105.77473,39.363382 103.17223,38.820882 C 86.777235,35.408382 74.353485,26.677132 75.424735,19.314632 C 76.504735,11.952132 90.659735,8.7571315 107.05973,12.170882 C 113.11598,13.433382 118.93723,15.475882 123.81473,17.917132 L 125.34348,14.615882 C 119.82223,12.453382 113.48598,10.629632 106.67223,9.3483815 C 83.348485,4.9696315 63.287235,8.6158815 61.850985,17.492132 C 60.422235,26.362132 78.158485,37.113382 101.47473,41.487132 C 104.38973,42.034632 107.25473,42.457132 110.03848,42.759632 L 110.91723,39.983382" id="path5246" style="fill:url(#linearGradient7430);stroke:none"></path></svg> 