<?xml version="1.0" encoding="UTF-8"?> <svg xmlns:xlink="http://www.w3.org/1999/xlink" xmlns="http://www.w3.org/2000/svg" id="Ebene_1" viewBox="0 0 60 60" width="60" height="60"><style>.st0{fill:#fff}.st1{enable-background:new}.st2{fill:#f60}</style><path class="st0" d="M5 5h50v50H5z"></path><g class="st1"><path class="st2" d="M35.6 26.4h-5l-5.4 5.5.7-5.5H15.8l.5-.6c4.8-5.5 13.4-9.2 21.1-9.2 5.7 0 10.4 1.8 12.4 4.9.4.5.7 1.1.9 1.7h4v3.2H40.4L35 31.8l.6-5.4z"></path><path class="st0" d="M37.4 16.9c.1 0 .1 0 0 0 5.5 0 10.1 1.7 12.1 4.8.4.6.7 1.2.9 1.8h3.9V26H40.2l-4.8 5 .6-5h-5.5l-4.9 5 .7-4.9h-9.7c4.6-5.4 12.9-9.2 20.8-9.2m0-.8c-7.8 0-16.5 3.8-21.4 9.4l-1.1 1.2h10.5l-.4 4.1-.3 2.1 1.6-1.6 4.7-4.7h4.5l-.5 4.1-.3 2.1 1.6-1.6 4.6-4.7H55v-4.1h-4.1c-.2-.6-.5-1.1-.8-1.6-2.1-2.7-6.8-4.7-12.7-4.7z"></path></g><path class="st2" d="M25.8 43.5c-5.6 0-10.2-1.8-12.2-5-1.4-2.1-1.6-4.8-.6-7.3.1-.4.3-.8.4-1.1l.1-.2h8.3l-.8 5.9h4.8l5.8-5.8-.6 5.8h4.7l5.8-6h8.3l-.3.5c-3.4 7.5-13.9 13.2-23.7 13.2z"></path><path class="st0" d="M49.3 30.2c-3.5 7.2-13.7 12.9-23.4 12.9h-.1c-5.4 0-9.9-1.8-11.9-4.8-1.3-2-1.5-4.7-.6-6.9.1-.4.3-.8.4-1.1h7.7l-.8 6H26l5.1-5.2-.7 5.2h5.3l5.8-6 7.8-.1m-17.2-1.3l-1.6 1.6-4.9 4.9h-4.3l.7-5.1.1-.8h-9l-.1.5c-.2.4-.3.8-.5 1.2-1 2.4-.8 5.2.7 7.6C15.4 42 20.1 44 25.8 44h.1c9.9 0 20.4-5.8 24-13.3l.5-1.1h-9.1l-.2.2-5.6 5.7h-4.2l.6-4.4.2-2.2z"></path><g class="st1"><path class="st2" d="M5.4 26.4v-21h49.2V22l-.7-1.4c-2.3-4.7-8.4-7.7-16.1-7.7-10.6 0-21.6 5.4-26.6 13.3l-.1.2H5.4z"></path><path class="st0" d="M54.2 5.8v14.6c-2.4-4.7-8.3-7.8-16.5-7.8-10.9 0-21.9 5.7-26.9 13.5h-5V5.8h48.4M55 5H5v21.8h6.2l.2-.3c5-7.8 15.9-13.1 26.4-13.1 7.6 0 13.5 2.8 15.8 7.5l1.4 2.7V5z"></path></g><g class="st1"><path class="st2" d="M5.4 54.6V29.9h3.9l-.2.5c-1.3 3.9-.8 7.6 1.4 10.5 2.8 4 8.3 6.2 15.1 6.2h.1c11.9 0 24.6-7.4 28.2-16.5l.7-1.7v25.8H5.4z"></path><path class="st0" d="M8.8 30.2C5.6 39.9 13 47.4 25.5 47.4h.1c12.2 0 24.9-7.5 28.6-16.7v23.4H5.8v-24h3M55 26.9l-1.4 3.5C50 39.3 37.5 46.7 25.7 46.7h-.1c-6.7 0-12.1-2.2-14.8-6.1-2.1-2.8-2.6-6.3-1.4-10.1l.3-1H5V55H55V26.9z"></path></g></svg> 