<?xml version="1.0" encoding="UTF-8"?> <svg xmlns="http://www.w3.org/2000/svg" xmlns:xlink="http://www.w3.org/1999/xlink" viewBox="0 0 445.04 152.48" width="445.04" height="152.48"><linearGradient id="a" gradientUnits="userSpaceOnUse" x1="0" x2="425.2" y1="112.92" y2="112.92"><stop offset=".1" stop-color="#b2b3b3"></stop><stop offset=".4" stop-color="#e2e3e3"></stop><stop offset=".6" stop-color="#b2b3b3"></stop><stop offset=".9" stop-color="#e2e3e3"></stop></linearGradient><linearGradient id="b" gradientUnits="userSpaceOnUse" x1="212.6" x2="212.6" y1="99.21" y2="0"><stop offset="0" stop-color="#007d2c"></stop><stop offset=".41" stop-color="#00802d"></stop><stop offset=".74" stop-color="#008a32"></stop><stop offset="1" stop-color="#009839"></stop></linearGradient><path d="m445.04 6.93c0 3.97-3.1 7.02-7.06 7.02s-7.11-3.05-7.11-7.02 3.14-6.93 7.11-6.93 7.06 3.05 7.06 6.93zm-12.65 0c0 3.23 2.4 5.76 5.63 5.76s5.45-2.53 5.45-5.71-2.31-5.76-5.5-5.76-5.58 2.57-5.58 5.71zm4.32 3.84h-1.35v-7.28c.74-.13 1.53-.22 2.53-.22 1.22 0 1.83.22 2.31.57.44.31.74.87.74 1.53 0 .92-.65 1.48-1.44 1.74v.09c.65.26 1 .83 1.22 1.74.22 1.13.35 1.57.52 1.83h-1.4c-.22-.26-.39-.92-.57-1.92-.17-.78-.65-1.13-1.7-1.13h-.87v3.05zm0-4.1h.92c1 0 1.87-.31 1.87-1.18 0-.7-.44-1.18-1.74-1.18-.52 0-.83.04-1.05.09z" fill="#12120d"></path><path d="m15.89 152.48c-2.48-.69-4.7-1.43-6.94-2.3-.4-.13-.77-.24-1.16-.26-4.12-.21-7.79-3.25-7.79-9.03s3.4-9.34 8.5-9.34 8.21 3.96 8.21 8.97c0 4.3-1.98 7.18-4.59 8.21v.11c1.53.42 3.25.79 4.7 1.08l-.92 2.56zm-2.61-11.8c0-3.4-1.66-6.52-4.88-6.52s-4.99 3.09-4.96 6.65c-.03 3.56 1.8 6.49 4.91 6.49s4.94-2.9 4.94-6.63zm20.51-8.85v10.37c0 3.48 1.45 5.09 3.64 5.09 2.35 0 3.75-1.61 3.75-5.09v-10.37h3.25v10.16c0 5.49-2.82 7.92-7.1 7.92s-6.78-2.3-6.78-7.89v-10.19h3.25zm28.14 12.75-1.53 5.04h-3.35l5.7-17.79h4.14l5.78 17.79h-3.48l-1.61-5.04zm5.09-2.45-1.4-4.38c-.34-1.08-.63-2.3-.9-3.33h-.05c-.26 1.03-.53 2.27-.84 3.33l-1.37 4.38h4.57zm19.19-10.3h3.25v15.07h7.31v2.72h-10.56zm27.32 0v17.79h-3.25v-17.79zm18.19 2.72h-5.07v-2.72h13.43v2.72h-5.12v15.07h-3.25v-15.07zm23.15 10.03-1.53 5.04h-3.35l5.7-17.79h4.14l5.78 17.79h-3.48l-1.61-5.04zm-1.14-15.44c0-.9.69-1.58 1.61-1.58.84 0 1.5.69 1.5 1.58s-.63 1.61-1.53 1.61-1.58-.74-1.58-1.61zm6.23 12.99-1.4-4.38c-.34-1.08-.63-2.3-.9-3.33h-.05c-.26 1.03-.53 2.27-.84 3.33l-1.37 4.38h4.57zm-1-12.99c0-.9.69-1.58 1.58-1.58s1.53.69 1.53 1.58-.63 1.61-1.53 1.61c-.95 0-1.58-.74-1.58-1.61zm21.46 5.41h-5.07v-2.72h13.43v2.72h-5.12v15.07h-3.25v-15.07zm41.29-2.72v17.79h-3.25v-17.79zm14.78 17.79v-17.79h3.7l4.59 7.63c1.19 1.98 2.22 4.04 3.04 5.97h.05c-.21-2.38-.29-4.67-.29-7.39v-6.2h3.01v17.79h-3.35l-4.65-7.81c-1.13-1.95-2.32-4.14-3.19-6.15l-.08.03c.13 2.3.16 4.65.16 7.58v6.36h-2.98zm60.44-7.25c-.11-2.3-.24-5.07-.21-7.47h-.08a95.78 95.78 0 0 1 -2.11 6.81l-2.59 7.71h-2.51l-2.38-7.6a84.98 84.98 0 0 1 -1.79-6.92h-.05c-.08 2.32-.18 5.15-.32 7.58l-.4 7.15h-3.03l1.19-17.79h4.28l2.32 7.15c.63 2.09 1.19 4.2 1.64 6.18h.08c.48-1.93 1.08-4.12 1.77-6.2l2.45-7.13h4.22l1.03 17.79h-3.17zm27.83-.64h-6.7v5.23h7.5v2.67h-10.74v-17.79h10.35v2.67h-7.1v4.59h6.7v2.64zm18.37-7.18h-5.07v-2.72h13.43v2.72h-5.12v15.07h-3.25v-15.07zm23.15 10.03-1.53 5.04h-3.35l5.7-17.79h4.14l5.78 17.79h-3.48l-1.61-5.04zm5.09-2.45-1.4-4.38c-.34-1.08-.63-2.3-.9-3.33h-.05c-.26 1.03-.53 2.27-.84 3.33l-1.37 4.38h4.57zm19.2-10.3h3.25v15.07h7.31v2.72h-10.56zm24.07 0h3.25v15.07h7.31v2.72h-10.56z" fill="#12120d"></path><path d="m0 117.17h425.2v.94h-425.2z" fill="#626463"></path><path d="m0 108.67h425.2v8.5h-425.2z" fill="url(#a)"></path><path d="m143.41 46.58 15 52.63h-30.03l14.73-52.63zm221.91-4.48c-13.3 0-14.95 15.84-14.95 25.86v31.26h26.45v-39.78c0-7.17 0-17.34-11.51-17.34zm-46.48 0c-13.3 0-14.94 15.84-14.94 25.86v31.26h26.45v-39.78c0-7.17 0-17.34-11.51-17.34zm-318.84-42.1v99.21h101.75l-23.94-70.87h21.22l17.04 56.94h.3l15.54-56.94h23.31l16.74 56.94h.3l15.99-56.94h19.13l-21.74 70.87h29.84l.86-11.83c6.28 3.14 12.85 5.08 19.73 5.08 5.08 0 13.15-1.94 13.15-9.42 0-15.09-34.82-4.78-34.82-32.58 0-16.59 14.55-23.56 30.24-23.56 9.41 0 15.45 1.66 21.73 3.01l-1.48 15.38c-6.04-2.31-10.43-4.1-17.75-4.1-5.38 0-11.81 1.94-11.81 8.52 0 12.26 34.82 4.48 34.82 32.28 0 7.57-2.85 13.21-7.36 17.21h21.1v-66.62l18.68-4.23v10.76h.3c6.28-9.42 15.39-12.55 22.87-12.55 10.76 0 18.38 4.03 22.72 13.6 4.63-9.27 14.65-13.6 24.06-13.6 18.98 0 24.36 13 24.36 30.19v42.47h28.35v-99.22z" fill="url(#b)"></path></svg> 