<?xml version="1.0" encoding="UTF-8"?> <svg xmlns:cc="http://creativecommons.org/ns#" xmlns:dc="http://purl.org/dc/elements/1.1/" xmlns:rdf="http://www.w3.org/1999/02/22-rdf-syntax-ns#" xmlns:svg="http://www.w3.org/2000/svg" xmlns="http://www.w3.org/2000/svg" xmlns:xlink="http://www.w3.org/1999/xlink" version="1.0" id="svg16749" x="0px" y="0px" viewBox="0 0 1081.1 745.7" style="enable-background:new 0 0 1081.1 745.7;" xml:space="preserve"> <style type="text/css"> .st0{fill:#007AC1;} .st1{fill:#00AD8E;} </style> <g id="layer1" transform="translate(52.487276,-371.84465)"> <g id="g16776" transform="matrix(5.8785192,0,0,5.8785192,-1016.8752,-4036.9723)"> <path id="path16682" class="st0" d="M180.7,825.6l12.2-20.4l-10.3,0.1l-1.2-4.1h19.4l-11.9,20.3l11.9-0.1v4.1L180.7,825.6"></path> <path id="path16684" class="st0" d="M249.5,825.6L239,812.1c-0.9-1.2-1.6-2.2-2.3-3.2h-0.1c0.1,0.8,0.1,2.3,0.1,3.4v13.3h-5v-24.4 h5.1l10.2,13c1,1.2,1.6,2.2,2.3,3.2h0.1c-0.1-1.2-0.1-2.7-0.1-3.8v-12.4h5v24.4L249.5,825.6"></path> <path id="path16686" class="st0" d="M276.2,805.4h-6.5v20.2h-5.1v-20.2h-7.1v-4.1h19.9L276.2,805.4"></path> <path id="path16688" class="st0" d="M279.8,825.6h5.1v-24.4h-5.1V825.6z"></path> <path id="path16690" class="st0" d="M301.2,825.8h-3.8l-10-24.5h5.6l4.9,12.9c0.6,1.6,1.2,3.2,1.7,4.5h0.1c0.4-1.3,1-2.7,1.6-4.4 l5.5-13.1h5.2L301.2,825.8"></path> <path id="path16692" class="st0" d="M325.9,825.8l-2.4-5.9h-8.3l-2.2,5.9h-5l9.5-24.5h3.8l10,24.5H325.9L325.9,825.8z M320.3,811 c-0.4-1.2-0.7-2.2-0.9-3h0c-0.1,0.8-0.5,1.8-0.9,2.9l-1.8,4.8h5.3L320.3,811"></path> <path id="path16694" class="st1" d="M222.8,814.2l0,0.2c-0.3,2.6-1.8,4.9-4,6.2c-3.2,1.8-7.1,1.3-9.7-1.1 c0.5-0.3,17.9-10.4,17.9-10.4l-0.1-0.2c-0.3-0.7-0.6-1.3-0.9-1.9c-0.4-0.7-0.8-1.3-1.3-1.9c-2-2.3-4.7-3.9-7.7-4.5 c-3.1-0.6-6.2,0-8.9,1.6c-3,1.8-5.2,4.6-6.1,8c-0.9,3.4-0.4,7,1.3,10c1.8,3.1,4.6,5.2,7.9,6.1c3.4,0.9,6.9,0.4,9.9-1.3 c3.7-2.2,6.2-6.1,6.5-10.4l0-0.2L222.8,814.2L222.8,814.2z M206.5,813.4c0-2.9,1.5-5.6,4.1-7.1c3.1-1.8,7-1.3,9.6,1 c-0.5,0.3-13,7.5-13.5,7.8C206.5,814.6,206.5,814,206.5,813.4"></path> </g> </g> </svg> 